<svg width="512" height="512" viewBox="-20 -20 440 440" fill="none" xmlns="http://www.w3.org/2000/svg">
<path d="M0 200C0 89.5431 89.5431 0 200 0C310.457 0 400 89.5431 400 200C400 310.457 310.457 400 200 400C89.5431 400 0 310.457 0 200Z" fill="#182233"/>
<path d="M197.538 164.392C192.607 163.704 188.035 167.166 187.347 172.097C186.658 177.029 190.121 181.6 195.052 182.289C199.983 182.977 204.555 179.515 205.243 174.584C205.932 169.652 202.469 165.08 197.538 164.392Z" fill="#FF1B2E"/>
<path d="M273.275 256.587L226.53 192.429C233.167 186.09 239.732 179.463 245.506 172.662C249.718 167.741 253.231 163.036 256.242 158.289C257.536 156.245 259.2 153.553 260.598 150.841C261.923 148.252 263.115 145.643 264.121 143.126C268.519 131.917 269.864 120.791 268.251 109.13C267.306 102.483 265.529 95.97 262.827 89.2202C263.002 94.3159 262.704 99.2781 261.954 104.014C260.125 115.839 255.656 127.13 248.321 138.523C246.677 141.112 244.848 143.742 242.886 146.321C241.191 148.571 239.157 151.221 236.927 153.831C233.147 158.269 228.801 162.964 223.623 168.183C216.462 175.374 208.706 182.474 201.216 189.336C198.966 191.391 196.716 193.456 194.487 195.521C194.21 195.778 193.943 196.024 193.665 196.281C184.511 204.757 174.957 213.89 166.923 223.342C162.711 228.263 159.197 232.968 156.187 237.715C154.893 239.759 153.228 242.451 151.831 245.163C150.506 247.752 149.314 250.361 148.307 252.878C143.91 264.087 142.564 275.213 144.177 286.874C145.123 293.521 146.89 300.034 149.602 306.784C149.427 301.688 149.725 296.726 150.475 291.99C152.304 280.165 156.773 268.874 164.108 257.481C165.752 254.892 167.581 252.262 169.543 249.683C171.238 247.433 173.272 244.783 175.502 242.173C179.282 237.735 183.628 233.04 188.806 227.821C194.22 222.386 199.963 217.013 205.685 211.743L237.065 256.957H273.553L273.275 256.587Z" fill="white"/>
<path d="M178.726 170.916C179.938 162.183 187.489 155.608 196.294 155.608C197.105 155.608 197.927 155.66 198.728 155.773C198.852 155.793 198.965 155.824 199.088 155.845L174.448 120.011H137.959L178.818 176.381C178.51 174.625 178.459 172.786 178.726 170.926V170.916Z" fill="white"/>
<path d="M220.138 146.742C219.963 146.722 219.799 146.701 219.624 146.691C216.265 146.485 213.275 148.941 212.813 152.28C212.32 155.824 214.806 159.111 218.351 159.605C218.525 159.625 218.69 159.646 218.864 159.656C222.224 159.861 225.213 157.406 225.676 154.067C226.169 150.523 223.683 147.235 220.138 146.742Z" fill="white"/>
<path d="M237.788 127.181C237.654 127.16 237.521 127.15 237.387 127.139C234.716 126.975 232.343 128.937 231.973 131.588C231.583 134.413 233.555 137.023 236.38 137.413C236.514 137.434 236.648 137.444 236.781 137.454C239.452 137.619 241.836 135.656 242.195 133.006C242.38 131.639 242.031 130.283 241.199 129.184C240.367 128.085 239.154 127.376 237.788 127.181Z" fill="white"/>
<path d="M249.84 106.86C249.737 106.849 249.635 106.839 249.542 106.829C247.559 106.706 245.792 108.164 245.515 110.127C245.227 112.222 246.696 114.164 248.782 114.452C248.885 114.462 248.987 114.472 249.08 114.483C251.063 114.606 252.83 113.147 253.107 111.185C253.395 109.089 251.926 107.147 249.84 106.86Z" fill="white"/>
<path d="M254.8 85.6038C254.738 85.6038 254.666 85.5833 254.605 85.5833C253.31 85.5011 252.159 86.4566 251.975 87.7407C251.79 89.1071 252.745 90.3811 254.111 90.566C254.173 90.566 254.307 90.5865 254.307 90.5865C255.601 90.6687 256.752 89.7133 256.937 88.4291C257.122 87.0627 256.166 85.799 254.8 85.6038Z" fill="white"/>
<path d="M138.822 246.098C138.997 246.118 139.161 246.139 139.336 246.149C142.695 246.354 145.685 243.899 146.147 240.56C146.64 237.016 144.154 233.728 140.61 233.235C140.435 233.214 140.271 233.194 140.096 233.184C136.737 232.978 133.747 235.434 133.285 238.772C133.049 240.488 133.49 242.194 134.538 243.58C135.586 244.967 137.107 245.861 138.822 246.098Z" fill="white"/>
<path d="M131.868 271.617C134.539 271.782 136.912 269.819 137.282 267.169C137.467 265.802 137.117 264.446 136.285 263.347C135.453 262.248 134.241 261.539 132.885 261.344C132.751 261.323 132.617 261.313 132.484 261.303C129.813 261.138 127.429 263.1 127.07 265.751C126.885 267.117 127.234 268.474 128.066 269.573C128.898 270.672 130.111 271.381 131.477 271.576C131.611 271.597 131.744 271.607 131.878 271.617H131.868Z" fill="white"/>
<path d="M133.43 287.1C133.327 287.089 133.224 287.079 133.132 287.069C131.149 286.946 129.382 288.404 129.115 290.367C128.971 291.373 129.238 292.391 129.855 293.202C130.471 294.024 131.375 294.548 132.382 294.692C132.485 294.702 132.587 294.712 132.68 294.723C134.663 294.846 136.43 293.387 136.697 291.425C136.841 290.418 136.574 289.401 135.957 288.589C135.341 287.767 134.437 287.243 133.43 287.1Z" fill="white"/>
<path d="M140.497 309.434C140.435 309.434 140.363 309.414 140.302 309.414C139.007 309.331 137.857 310.287 137.672 311.571C137.487 312.937 138.442 314.201 139.809 314.396C139.87 314.396 140.004 314.417 140.004 314.417C141.298 314.499 142.449 313.544 142.634 312.259C142.726 311.602 142.552 310.944 142.151 310.41C141.75 309.876 141.165 309.527 140.497 309.444V309.434Z" fill="white"/>
<path d="M174.143 184.354C173.938 184.323 173.732 184.302 173.527 184.292C169.479 184.045 165.873 187.004 165.318 191.031C165.031 193.096 165.565 195.151 166.828 196.826C168.092 198.49 169.921 199.569 171.986 199.856C172.191 199.887 172.397 199.908 172.602 199.918C176.65 200.165 180.256 197.206 180.811 193.189C181.407 188.915 178.407 184.96 174.133 184.364L174.143 184.354Z" fill="white"/>
<path d="M153.053 220.608C153.227 220.629 153.392 220.649 153.566 220.66C156.926 220.865 159.915 218.41 160.378 215.071C160.871 211.526 158.385 208.239 154.84 207.746C154.666 207.725 154.501 207.705 154.327 207.694C150.967 207.489 147.978 209.944 147.515 213.283C147.279 214.999 147.721 216.704 148.769 218.091C149.817 219.478 151.337 220.372 153.053 220.608Z" fill="white"/>
</svg>
