<svg width="192" height="192" viewBox="0 0 192 192" xmlns="http://www.w3.org/2000/svg">
  <defs>
    <linearGradient id="bg" x1="0%" y1="0%" x2="100%" y2="100%">
      <stop offset="0%" style="stop-color:#0a2a5e"/>
      <stop offset="50%" style="stop-color:#116acc"/>
      <stop offset="100%" style="stop-color:#1a7aee"/>
    </linearGradient>
  </defs>
  <rect width="192" height="192" rx="38" fill="url(#bg)"/>
  <g transform="translate(38, 16) scale(0.715)">
    <path fill="#ff1b2e" d="M78.27,87.48c-5.47-.76-10.55,3.08-11.31,8.55-.76,5.47,3.08,10.55,8.55,11.31,5.47.76,10.55-3.08,11.31-8.55.76-5.47-3.08-10.55-8.55-11.31Z"/>
    <path fill="#ffffff" d="M162.33,189.81l-51.88-71.21c7.37-7.04,14.65-14.39,21.06-21.94,4.68-5.46,8.58-10.68,11.92-15.95,1.44-2.27,3.28-5.26,4.83-8.27,1.47-2.87,2.79-5.77,3.91-8.56,4.88-12.44,6.37-24.79,4.58-37.73-1.05-7.38-3.02-14.61-6.02-22.1.19,5.66-.14,11.16-.97,16.42-2.03,13.12-6.99,25.66-15.13,38.3-1.82,2.87-3.85,5.79-6.03,8.65-1.88,2.5-4.14,5.44-6.61,8.34-4.2,4.93-9.02,10.14-14.77,15.93-7.95,7.98-16.56,15.86-24.87,23.48-2.5,2.28-4.99,4.57-7.47,6.86-.31.29-.6.56-.91.84-10.16,9.41-20.76,19.55-29.68,30.03-4.67,5.46-8.57,10.68-11.92,15.95-1.44,2.27-3.28,5.26-4.83,8.27-1.47,2.87-2.79,5.77-3.91,8.56-4.88,12.44-6.37,24.79-4.58,37.73,1.05,7.38,3.01,14.61,6.02,22.1-.19-5.66.14-11.16.97-16.42,2.03-13.12,6.99-25.66,15.13-38.3,1.83-2.87,3.86-5.79,6.03-8.65,1.88-2.5,4.14-5.44,6.61-8.34,4.2-4.93,9.02-10.14,14.77-15.93,6.01-6.03,12.38-12,18.74-17.85l34.83,50.18h40.5l-.31-.41Z"/>
    <path fill="#ffffff" d="M57.39,94.72c1.35-9.69,9.73-16.99,19.5-16.99.9,0,1.81.06,2.7.18.14.02.26.06.4.08l-27.35-39.77H12.14l45.35,62.57c-.34-1.95-.4-3.99-.1-6.06h0Z"/>
    <path fill="#ffffff" d="M103.35,67.89c-.19-.02-.38-.05-.57-.06-3.73-.23-7.05,2.5-7.56,6.2-.55,3.93,2.21,7.58,6.15,8.13.19.02.38.05.57.06,3.73.23,7.05-2.5,7.56-6.2.55-3.93-2.21-7.58-6.15-8.13Z"/>
    <path fill="#ffffff" d="M122.94,46.18c-.15-.02-.3-.03-.44-.05-2.96-.18-5.6,2-6.01,4.94-.43,3.14,1.76,6.03,4.89,6.47.15.02.3.03.45.05,2.96.18,5.61-2,6.01-4.94.2-1.52-.18-3.02-1.11-4.24-.92-1.22-2.27-2.01-3.79-2.22Z"/>
    <path fill="#ffffff" d="M136.32,23.62c-.11-.01-.23-.02-.33-.03-2.2-.14-4.16,1.48-4.47,3.66-.32,2.33,1.31,4.48,3.63,4.8.11.01.23.02.33.03,2.2.14,4.16-1.48,4.47-3.66.32-2.33-1.31-4.48-3.63-4.8Z"/>
    <path fill="#ffffff" d="M141.82.03c-.07,0-.15-.02-.22-.02-1.44-.09-2.71.97-2.92,2.39-.21,1.52.85,2.93,2.37,3.14.07,0,.22.02.22.02,1.44.09,2.71-.97,2.92-2.39.21-1.52-.86-2.92-2.37-3.14Z"/>
    <path fill="#ffffff" d="M13.1,178.16c.19.02.38.05.57.06,3.73.23,7.05-2.5,7.56-6.2.55-3.93-2.21-7.58-6.15-8.13-.19-.02-.38-.05-.57-.06-3.73-.23-7.05,2.5-7.56,6.2-.26,1.9.23,3.8,1.39,5.34,1.16,1.54,2.85,2.53,4.76,2.79Z"/>
    <path fill="#ffffff" d="M5.38,206.49c2.96.18,5.6-2,6.01-4.94.21-1.52-.18-3.02-1.11-4.24-.92-1.22-2.27-2.01-3.77-2.22-.15-.02-.3-.04-.45-.05-2.96-.18-5.61,1.99-6.01,4.94-.2,1.52.18,3.02,1.11,4.24.92,1.22,2.27,2.01,3.79,2.22.15.02.3.03.44.05h-.01Z"/>
    <path fill="#ffffff" d="M7.11,223.67c-.11-.01-.23-.02-.33-.03-2.2-.14-4.16,1.48-4.46,3.66-.16,1.12.14,2.25.82,3.15.68.91,1.69,1.49,2.81,1.65.11.01.23.02.33.03,2.2.14,4.16-1.48,4.46-3.66.16-1.12-.14-2.25-.82-3.15-.68-.91-1.69-1.49-2.81-1.65Z"/>
    <path fill="#ffffff" d="M14.96,248.46c-.07,0-.15-.02-.22-.02-1.44-.09-2.71.97-2.92,2.4-.21,1.52.85,2.92,2.37,3.13.07,0,.22.02.22.02,1.44.09,2.71-.97,2.92-2.39.1-.73-.09-1.46-.54-2.05-.44-.59-1.09-.98-1.84-1.07h0Z"/>
    <path fill="#ffffff" d="M52.3,109.63c-.23-.03-.46-.06-.68-.07-4.49-.27-8.5,3.01-9.11,7.48-.32,2.29.27,4.57,1.68,6.43,1.4,1.85,3.43,3.05,5.72,3.36.23.03.46.06.68.07,4.49.27,8.5-3.01,9.11-7.47.66-4.74-2.67-9.13-7.41-9.8h.01Z"/>
    <path fill="#ffffff" d="M28.89,149.87c.19.02.38.05.57.06,3.73.23,7.05-2.5,7.56-6.2.55-3.93-2.21-7.58-6.15-8.13-.19-.02-.38-.05-.57-.06-3.73-.23-7.05,2.5-7.56,6.2-.26,1.9.23,3.8,1.39,5.34,1.16,1.54,2.85,2.53,4.76,2.79Z"/>
  </g>
</svg>
