<svg width="151" height="49" viewBox="0 0 151 49" fill="none" xmlns="http://www.w3.org/2000/svg">
<path d="M37.8358 13.9568C36.9625 13.835 36.153 14.4481 36.0311 15.3213C35.9092 16.1946 36.5223 17.0042 37.3955 17.1261C38.2688 17.248 39.0784 16.6349 39.2003 15.7616C39.3222 14.8883 38.7091 14.0787 37.8358 13.9568Z" fill="#FF1B2E"/>
<path d="M51.2473 30.2827L42.9695 18.9212C44.1448 17.7987 45.3073 16.6253 46.3297 15.4209C47.0756 14.5494 47.6978 13.7162 48.2309 12.8757C48.4601 12.5136 48.7549 12.037 49.0023 11.5567C49.237 11.0982 49.448 10.6361 49.6263 10.1904C50.405 8.20554 50.6433 6.23524 50.3577 4.17033C50.1903 2.99325 49.8756 1.83981 49.3971 0.644531C49.428 1.5469 49.3752 2.42563 49.2424 3.26432C48.9186 5.35834 48.1272 7.35775 46.8282 9.37535C46.5371 9.83381 46.2133 10.2996 45.8658 10.7562C45.5656 11.1546 45.2054 11.624 44.8106 12.0861C44.1411 12.872 43.3716 13.7035 42.4546 14.6277C41.1866 15.9012 39.813 17.1583 38.4867 18.3736C38.0883 18.7375 37.6899 19.1031 37.2951 19.4688C37.246 19.5143 37.1987 19.558 37.1495 19.6035C35.5286 21.1044 33.8366 22.7217 32.4139 24.3955C31.668 25.2669 31.0458 26.1002 30.5127 26.9407C30.2835 27.3027 29.9888 27.7794 29.7414 28.2597C29.5067 28.7181 29.2956 29.1802 29.1173 29.626C28.3387 31.6108 28.1004 33.5811 28.386 35.646C28.5534 36.8231 28.8663 37.9766 29.3466 39.1718C29.3156 38.2695 29.3684 37.3908 29.5012 36.5521C29.825 34.458 30.6164 32.4586 31.9154 30.441C32.2065 29.9826 32.5303 29.5168 32.8778 29.0602C33.178 28.6617 33.5382 28.1924 33.933 27.7303C34.6025 26.9443 35.3721 26.1129 36.289 25.1887C37.2478 24.2263 38.2648 23.2748 39.2781 22.3415L44.8349 30.3482H51.2966L51.2473 30.2827Z" fill="#182233"/>
<path d="M34.5043 15.1121C34.7189 13.5657 36.0561 12.4014 37.6153 12.4014C37.759 12.4014 37.9045 12.4105 38.0464 12.4305C38.0683 12.4341 38.0883 12.4396 38.1101 12.4432L33.7468 6.09766H27.2852L34.5206 16.08C34.466 15.7689 34.4569 15.4432 34.5043 15.1139V15.1121Z" fill="#182233"/>
<path d="M41.8355 10.8315C41.8046 10.8279 41.7755 10.8243 41.7446 10.8224C41.1497 10.7861 40.6203 11.2209 40.5384 11.8121C40.4511 12.4398 40.8913 13.022 41.519 13.1093C41.5499 13.1129 41.579 13.1166 41.61 13.1184C42.2049 13.1548 42.7343 12.72 42.8161 12.1287C42.9035 11.501 42.4632 10.9189 41.8355 10.8315Z" fill="#182233"/>
<path d="M44.9642 7.36738C44.9406 7.36374 44.9169 7.36192 44.8933 7.3601C44.4203 7.33099 44 7.67848 43.9345 8.14786C43.8654 8.64816 44.2147 9.11027 44.715 9.1794C44.7386 9.18304 44.7623 9.18486 44.7859 9.18668C45.259 9.21579 45.681 8.8683 45.7447 8.39892C45.7775 8.15695 45.7156 7.91681 45.5682 7.72214C45.4209 7.52748 45.2062 7.40194 44.9642 7.36738Z" fill="#182233"/>
<path d="M47.0965 3.76846C47.0783 3.76664 47.0601 3.76483 47.0438 3.76301C46.6926 3.74117 46.3797 3.99951 46.3306 4.347C46.2796 4.71814 46.5398 5.06199 46.9091 5.11293C46.9273 5.11475 46.9455 5.11656 46.9619 5.11838C47.313 5.14022 47.6259 4.88188 47.6751 4.53439C47.726 4.16325 47.4658 3.8194 47.0965 3.76846Z" fill="#182233"/>
<path d="M47.977 0.00451118C47.9661 0.00451118 47.9534 0.000872578 47.9425 0.000872578C47.7132 -0.0136818 47.5095 0.155513 47.4767 0.382926C47.444 0.624892 47.6132 0.850486 47.8551 0.883233C47.866 0.883233 47.8897 0.886872 47.8897 0.886872C48.1189 0.901426 48.3227 0.732231 48.3554 0.504819C48.3882 0.262852 48.219 0.0390779 47.977 0.00451118Z" fill="#182233"/>
<path d="M27.4369 28.4257C27.4678 28.4293 27.497 28.433 27.5279 28.4348C28.1228 28.4712 28.6522 28.0364 28.7341 27.4451C28.8214 26.8174 28.3811 26.2353 27.7535 26.1479C27.7225 26.1443 27.6934 26.1407 27.6625 26.1388C27.0676 26.1025 26.5382 26.5373 26.4563 27.1285C26.4145 27.4324 26.4927 27.7344 26.6783 27.98C26.8638 28.2256 27.1331 28.3839 27.4369 28.4257Z" fill="#182233"/>
<path d="M26.2058 32.9445C26.6788 32.9736 27.0991 32.6261 27.1646 32.1567C27.1973 31.9148 27.1355 31.6746 26.9881 31.48C26.8408 31.2853 26.6261 31.1598 26.3859 31.1252C26.3623 31.1216 26.3386 31.1197 26.315 31.1179C25.842 31.0888 25.4199 31.4363 25.3562 31.9057C25.3235 32.1476 25.3853 32.3878 25.5327 32.5825C25.68 32.7771 25.8947 32.9026 26.1367 32.9372C26.1603 32.9409 26.184 32.9427 26.2076 32.9445H26.2058Z" fill="#182233"/>
<path d="M26.4818 35.6864C26.4636 35.6846 26.4454 35.6828 26.429 35.681C26.0779 35.6591 25.765 35.9175 25.7177 36.265C25.6922 36.4433 25.7395 36.6234 25.8487 36.7671C25.9578 36.9126 26.1179 37.0054 26.2962 37.0309C26.3144 37.0327 26.3326 37.0345 26.349 37.0364C26.7001 37.0582 27.013 36.7998 27.0603 36.4524C27.0858 36.2741 27.0385 36.094 26.9293 35.9502C26.8202 35.8047 26.6601 35.7119 26.4818 35.6864Z" fill="#182233"/>
<path d="M27.7348 39.6412C27.7239 39.6412 27.7112 39.6376 27.7003 39.6376C27.471 39.623 27.2673 39.7922 27.2345 40.0196C27.2018 40.2616 27.371 40.4854 27.6129 40.52C27.6239 40.52 27.6475 40.5236 27.6475 40.5236C27.8767 40.5381 28.0805 40.369 28.1132 40.1415C28.1296 40.0251 28.0987 39.9087 28.0277 39.8141C27.9568 39.7195 27.8531 39.6576 27.7348 39.643V39.6412Z" fill="#182233"/>
<path d="M33.6934 17.492C33.657 17.4865 33.6207 17.4829 33.5843 17.4811C32.8675 17.4374 32.2289 17.9614 32.1306 18.6745C32.0797 19.0402 32.1743 19.4041 32.3981 19.7006C32.6219 19.9953 32.9457 20.1864 33.3114 20.2373C33.3478 20.2428 33.3841 20.2464 33.4205 20.2482C34.1373 20.2919 34.7759 19.7679 34.8742 19.0566C34.9797 18.2997 34.4484 17.5993 33.6916 17.4938L33.6934 17.492Z" fill="#182233"/>
<path d="M29.9564 23.912C29.9874 23.9157 30.0165 23.9193 30.0474 23.9211C30.6423 23.9575 31.1717 23.5227 31.2536 22.9314C31.3409 22.3038 30.9007 21.7216 30.273 21.6343C30.2421 21.6306 30.213 21.627 30.182 21.6252C29.5871 21.5888 29.0577 22.0236 28.9758 22.6149C28.934 22.9187 29.0122 23.2207 29.1978 23.4663C29.3834 23.7119 29.6526 23.8702 29.9564 23.912Z" fill="#182233"/>
<path d="M7.17149 25.8449H20.371V30.3487H1.59375V6.09766H19.9206V10.6014H7.17149V15.8674H18.4309V20.2326H7.17149V25.8449Z" fill="#182233"/>
<path d="M136.674 30.3487V10.6707H128.914V6.09766H150.047V10.6707H142.287V30.3487H136.674Z" fill="#182233"/>
<path d="M126.843 30.3487H120.815L116.138 23.5931H115.861H110.976V30.3487H105.363V6.09766H115.861C122.339 6.09766 126.392 9.45816 126.392 14.8973C126.392 18.535 124.556 21.2026 121.404 22.5537L126.843 30.3487ZM120.711 14.8973C120.711 12.2297 118.979 10.6707 115.549 10.6707H110.976V19.1239H115.549C118.979 19.1239 120.711 17.5303 120.711 14.8973Z" fill="#182233"/>
<path d="M87.6988 25.8449H100.898V30.3487H82.1211V6.09766H100.448V10.6014H87.6988V15.8674H98.9582V20.2326H87.6988V25.8449Z" fill="#182233"/>
<path d="M67.5793 6.09766C74.0578 6.09766 78.1112 9.45816 78.1112 14.8973C78.1112 20.3018 74.0578 23.6623 67.5793 23.6623H62.6944V30.3487H57.082V6.09766H67.5793ZM67.2675 19.0893C70.6973 19.0893 72.4295 17.5303 72.4295 14.8973C72.4295 12.2297 70.6973 10.6707 67.2675 10.6707H62.6944V19.0893H67.2675Z" fill="#182233"/>
<path d="M150.025 33.2969L145.995 39.9587V43.5911H144.083V39.9881L140.039 33.2969H142.083L145.098 38.3117L148.142 33.2969H150.025Z" fill="#116ACC"/>
<path d="M135.605 41.5319V38.326H137.414V42.429C136.34 43.2966 134.84 43.7378 133.384 43.7378C130.193 43.7378 127.84 41.5172 127.84 38.4436C127.84 35.37 130.193 33.1494 133.413 33.1494C135.134 33.1494 136.575 33.723 137.546 34.8259L136.34 36.0024C135.531 35.1936 134.605 34.8259 133.502 34.8259C131.31 34.8259 129.766 36.3112 129.766 38.4436C129.766 40.5319 131.31 42.0613 133.487 42.0613C134.222 42.0613 134.943 41.9142 135.605 41.5319Z" fill="#116ACC"/>
<path d="M119.388 43.7378C116.197 43.7378 113.844 41.4878 113.844 38.4436C113.844 35.3994 116.197 33.1494 119.388 33.1494C122.579 33.1494 124.932 35.3847 124.932 38.4436C124.932 41.5025 122.579 43.7378 119.388 43.7378ZM119.388 42.0613C121.462 42.0613 123.006 40.5466 123.006 38.4436C123.006 36.3406 121.462 34.8259 119.388 34.8259C117.314 34.8259 115.77 36.3406 115.77 38.4436C115.77 40.5466 117.314 42.0613 119.388 42.0613Z" fill="#116ACC"/>
<path d="M104.344 43.5911V33.2969H106.256V41.9735H111.638V43.5911H104.344Z" fill="#116ACC"/>
<path d="M95.1536 43.7378C91.9623 43.7378 89.6094 41.4878 89.6094 38.4436C89.6094 35.3994 91.9623 33.1494 95.1536 33.1494C98.3448 33.1494 100.698 35.3847 100.698 38.4436C100.698 41.5025 98.3448 43.7378 95.1536 43.7378ZM95.1536 42.0613C97.2271 42.0613 98.7713 40.5466 98.7713 38.4436C98.7713 36.3406 97.2271 34.8259 95.1536 34.8259C93.08 34.8259 91.5359 36.3406 91.5359 38.4436C91.5359 40.5466 93.08 42.0613 95.1536 42.0613Z" fill="#116ACC"/>
<path d="M84.0312 43.5911V33.2969H85.943V43.5911H84.0312Z" fill="#116ACC"/>
<path d="M70.2656 43.5911V33.2969H74.7657C78.104 33.2969 80.3834 35.3557 80.3834 38.444C80.3834 41.5323 78.104 43.5911 74.7657 43.5911H70.2656ZM72.1774 41.9735H74.6775C76.9716 41.9735 78.4569 40.5764 78.4569 38.444C78.4569 36.3116 76.9716 34.9145 74.6775 34.9145H72.1774V41.9735Z" fill="#116ACC"/>
<path d="M65.3377 43.5911L64.3082 41.2088H59.1611L58.1464 43.5911H56.1758L60.8082 33.2969H62.6906L67.3377 43.5911H65.3377ZM59.8082 39.7087H63.6759L61.7347 35.2087L59.8082 39.7087Z" fill="#116ACC"/>
<path d="M54.0521 43.5911H51.9932L49.8902 40.5764C49.7579 40.5911 49.6255 40.5911 49.4932 40.5911H47.1696V43.5911H45.2578V33.2969H49.4932C52.1991 33.2969 53.8756 34.6792 53.8756 36.9587C53.8756 38.5175 53.0815 39.6646 51.6844 40.2087L54.0521 43.5911ZM51.9491 36.9587C51.9491 35.6646 51.0814 34.9145 49.4049 34.9145H47.1696V39.0175H49.4049C51.0814 39.0175 51.9491 38.2528 51.9491 36.9587Z" fill="#116ACC"/>
</svg>
