<svg width="188" height="61" viewBox="0 0 188 61" fill="none" xmlns="http://www.w3.org/2000/svg">
<path d="M47.2784 17.4402C46.1872 17.2879 45.1755 18.054 45.0232 19.1453C44.8709 20.2365 45.637 21.2482 46.7283 21.4005C47.8195 21.5528 48.8312 20.7867 48.9835 19.6954C49.1358 18.6042 48.3697 17.5925 47.2784 17.4402Z" fill="#FF1B2E"/>
<path d="M64.0377 37.8422L53.6936 23.6446C55.1622 22.2419 56.6149 20.7755 57.8926 19.2705C58.8247 18.1815 59.6022 17.1403 60.2683 16.0899C60.5548 15.6375 60.9231 15.0419 61.2323 14.4417C61.5256 13.8688 61.7893 13.2914 62.0121 12.7344C62.9851 10.254 63.2829 7.79192 62.926 5.21158C62.7168 3.74067 62.3235 2.29931 61.7256 0.805664C61.7643 1.93329 61.6983 3.03135 61.5324 4.07941C61.1277 6.69613 60.1388 9.19463 58.5155 11.7159C58.1518 12.2888 57.7471 12.8708 57.3129 13.4414C56.9378 13.9393 56.4876 14.5258 55.9943 15.1033C55.1577 16.0854 54.196 17.1244 53.0502 18.2793C51.4656 19.8707 49.7492 21.4416 48.0918 22.9603C47.594 23.415 47.0961 23.8719 46.6027 24.3289C46.5414 24.3857 46.4822 24.4403 46.4209 24.4971C44.3952 26.3727 42.2809 28.3938 40.5031 30.4853C39.571 31.5743 38.7935 32.6155 38.1274 33.6659C37.8409 34.1183 37.4726 34.7139 37.1634 35.3141C36.8702 35.887 36.6065 36.4645 36.3837 37.0214C35.4106 39.5018 35.1128 41.9639 35.4697 44.5442C35.6789 46.0151 36.0699 47.4565 36.6701 48.9501C36.6315 47.8225 36.6974 46.7245 36.8634 45.6764C37.268 43.0597 38.257 40.5612 39.8802 38.0399C40.2439 37.467 40.6486 36.885 41.0828 36.3144C41.458 35.8165 41.9081 35.23 42.4014 34.6525C43.2381 33.6704 44.1997 32.6314 45.3455 31.4765C46.5436 30.2739 47.8145 29.0849 49.0808 27.9186L56.0247 37.924H64.0993L64.0377 37.8422Z" fill="white"/>
<path d="M43.1149 18.8843C43.3831 16.9519 45.0541 15.4969 47.0024 15.4969C47.182 15.4969 47.3639 15.5082 47.5412 15.5332C47.5685 15.5378 47.5935 15.5446 47.6208 15.5491L42.1683 7.61963H34.0938L43.1353 20.0937C43.0671 19.705 43.0558 19.298 43.1149 18.8865V18.8843Z" fill="white"/>
<path d="M52.2793 13.535C52.2406 13.5305 52.2043 13.5259 52.1656 13.5237C51.4222 13.4782 50.7606 14.0215 50.6583 14.7604C50.5492 15.5447 51.0994 16.2722 51.8837 16.3814C51.9224 16.3859 51.9587 16.3905 51.9974 16.3927C52.7408 16.4382 53.4024 15.8948 53.5047 15.156C53.6138 14.3716 53.0636 13.6441 52.2793 13.535Z" fill="white"/>
<path d="M56.1844 9.20605C56.1548 9.2015 56.1253 9.19923 56.0957 9.19695C55.5046 9.16058 54.9795 9.5948 54.8976 10.1813C54.8112 10.8065 55.2477 11.384 55.8729 11.4704C55.9025 11.4749 55.932 11.4772 55.9616 11.4795C56.5527 11.5159 57.0801 11.0816 57.1597 10.4951C57.2006 10.1927 57.1233 9.89262 56.9392 9.64936C56.755 9.40611 56.4868 9.24924 56.1844 9.20605Z" fill="white"/>
<path d="M58.8518 4.70911C58.8291 4.70684 58.8063 4.70457 58.7859 4.70229C58.3471 4.67501 57.9561 4.99784 57.8947 5.43206C57.831 5.89584 58.1561 6.32552 58.6176 6.38918C58.6404 6.39145 58.6631 6.39373 58.6836 6.396C59.1223 6.42328 59.5134 6.10045 59.5747 5.66623C59.6384 5.20245 59.3133 4.77277 58.8518 4.70911Z" fill="white"/>
<path d="M59.9467 0.00563726C59.933 0.00563726 59.9171 0.00109039 59.9035 0.00109039C59.617 -0.0170971 59.3624 0.194332 59.3215 0.478511C59.2806 0.780878 59.492 1.06278 59.7943 1.10371C59.808 1.10371 59.8375 1.10825 59.8375 1.10825C60.124 1.12644 60.3786 0.91501 60.4195 0.630831C60.4605 0.328465 60.249 0.0488325 59.9467 0.00563726Z" fill="white"/>
<path d="M34.2821 35.521C34.3207 35.5256 34.3571 35.5301 34.3958 35.5324C35.1392 35.5778 35.8008 35.0345 35.9031 34.2956C36.0122 33.5113 35.462 32.7838 34.6777 32.6747C34.639 32.6701 34.6027 32.6656 34.564 32.6633C33.8206 32.6178 33.159 33.1612 33.0567 33.9C33.0044 34.2797 33.1022 34.6571 33.3341 34.964C33.566 35.2709 33.9024 35.4687 34.2821 35.521Z" fill="white"/>
<path d="M32.7443 41.1684C33.3353 41.2048 33.8605 40.7706 33.9424 40.184C33.9833 39.8817 33.906 39.5816 33.7218 39.3383C33.5377 39.0951 33.2694 38.9382 32.9693 38.895C32.9398 38.8905 32.9102 38.8882 32.8807 38.8859C32.2896 38.8495 31.7621 39.2838 31.6826 39.8703C31.6416 40.1727 31.7189 40.4728 31.9031 40.716C32.0872 40.9593 32.3555 41.1162 32.6579 41.1593C32.6874 41.1639 32.717 41.1662 32.7465 41.1684H32.7443Z" fill="white"/>
<path d="M33.0883 44.5944C33.0655 44.5921 33.0428 44.5898 33.0223 44.5875C32.5836 44.5603 32.1925 44.8831 32.1334 45.3173C32.1016 45.5401 32.1607 45.7652 32.2971 45.9448C32.4335 46.1267 32.6336 46.2426 32.8564 46.2744C32.8791 46.2767 32.9018 46.279 32.9223 46.2813C33.3611 46.3085 33.7521 45.9857 33.8112 45.5515C33.8431 45.3287 33.7839 45.1036 33.6475 44.924C33.5111 44.7421 33.3111 44.6262 33.0883 44.5944Z" fill="white"/>
<path d="M34.6537 49.5369C34.6401 49.5369 34.6241 49.5323 34.6105 49.5323C34.324 49.5142 34.0694 49.7256 34.0285 50.0098C33.9876 50.3121 34.199 50.5918 34.5014 50.635C34.515 50.635 34.5446 50.6395 34.5446 50.6395C34.831 50.6577 35.0857 50.4463 35.1266 50.1621C35.147 50.0166 35.1084 49.8711 35.0197 49.7529C34.9311 49.6346 34.8015 49.5573 34.6537 49.5392V49.5369Z" fill="white"/>
<path d="M42.0986 21.8581C42.0531 21.8513 42.0077 21.8468 41.9622 21.8445C41.0665 21.7899 40.2685 22.4447 40.1457 23.3359C40.0821 23.7928 40.2003 24.2475 40.4799 24.6181C40.7596 24.9864 41.1642 25.2251 41.6212 25.2887C41.6667 25.2956 41.7121 25.3001 41.7576 25.3024C42.6533 25.3569 43.4513 24.7022 43.5741 23.8133C43.7059 22.8675 43.0421 21.9923 42.0963 21.8604L42.0986 21.8581Z" fill="white"/>
<path d="M37.4305 29.8809C37.4692 29.8854 37.5056 29.89 37.5442 29.8922C38.2876 29.9377 38.9492 29.3944 39.0515 28.6555C39.1606 27.8712 38.6104 27.1437 37.8261 27.0345C37.7875 27.03 37.7511 27.0254 37.7124 27.0232C36.969 26.9777 36.3075 27.521 36.2052 28.2599C36.1529 28.6396 36.2506 29.017 36.4825 29.3239C36.7144 29.6308 37.0509 29.8286 37.4305 29.8809Z" fill="white"/>
<path d="M8.96224 32.2962H25.4566V37.9242H1.99219V7.61963H24.8938V13.2476H8.96224V19.828H23.0322V25.2829H8.96224V32.2962Z" fill="white"/>
<path d="M170.787 37.9242V13.3342H161.09V7.61963H187.498V13.3342H177.801V37.9242H170.787Z" fill="white"/>
<path d="M158.505 37.9242H150.972L145.128 29.4822H144.782H138.677V37.9242H131.664V7.61963H144.782C152.877 7.61963 157.942 11.819 157.942 18.6159C157.942 23.1616 155.648 26.4951 151.708 28.1835L158.505 37.9242ZM150.843 18.6159C150.843 15.2824 148.678 13.3342 144.392 13.3342H138.677V23.8975H144.392C148.678 23.8975 150.843 21.9061 150.843 18.6159Z" fill="white"/>
<path d="M109.587 32.2962H126.082V37.9242H102.617V7.61963H125.519V13.2476H109.587V19.828H123.657V25.2829H109.587V32.2962Z" fill="white"/>
<path d="M84.4496 7.61963C92.5452 7.61963 97.6104 11.819 97.6104 18.6159C97.6104 25.3695 92.5452 29.5688 84.4496 29.5688H78.3454V37.9242H71.332V7.61963H84.4496ZM84.06 23.8542C88.3459 23.8542 90.5105 21.9061 90.5105 18.6159C90.5105 15.2824 88.3459 13.3342 84.06 13.3342H78.3454V23.8542H84.06Z" fill="white"/>
<path d="M187.47 41.6079L182.435 49.9327V54.4718H180.046V49.9695L174.992 41.6079H177.547L181.314 47.8745L185.118 41.6079H187.47Z" fill="white"/>
<path d="M169.453 51.8992V47.893H171.713V53.0202C170.372 54.1045 168.497 54.6558 166.678 54.6558C162.69 54.6558 159.75 51.8808 159.75 48.04C159.75 44.1992 162.69 41.4243 166.715 41.4243C168.865 41.4243 170.666 42.141 171.879 43.5193L170.372 44.9895C169.361 43.9787 168.203 43.5193 166.825 43.5193C164.087 43.5193 162.157 45.3754 162.157 48.04C162.157 50.6496 164.087 52.5608 166.807 52.5608C167.726 52.5608 168.626 52.377 169.453 51.8992Z" fill="white"/>
<path d="M149.19 54.6558C145.202 54.6558 142.262 51.8441 142.262 48.04C142.262 44.236 145.202 41.4243 149.19 41.4243C153.178 41.4243 156.118 44.2176 156.118 48.04C156.118 51.8625 153.178 54.6558 149.19 54.6558ZM149.19 52.5608C151.781 52.5608 153.711 50.668 153.711 48.04C153.711 45.4121 151.781 43.5193 149.19 43.5193C146.599 43.5193 144.669 45.4121 144.669 48.04C144.669 50.668 146.599 52.5608 149.19 52.5608Z" fill="white"/>
<path d="M130.391 54.4718V41.6079H132.78V52.4504H139.506V54.4718H130.391Z" fill="white"/>
<path d="M118.909 54.6558C114.921 54.6558 111.98 51.8441 111.98 48.04C111.98 44.236 114.921 41.4243 118.909 41.4243C122.896 41.4243 125.837 44.2176 125.837 48.04C125.837 51.8625 122.896 54.6558 118.909 54.6558ZM118.909 52.5608C121.5 52.5608 123.429 50.668 123.429 48.04C123.429 45.4121 121.5 43.5193 118.909 43.5193C116.317 43.5193 114.388 45.4121 114.388 48.04C114.388 50.668 116.317 52.5608 118.909 52.5608Z" fill="white"/>
<path d="M105.008 54.4718V41.6079H107.397V54.4718H105.008Z" fill="white"/>
<path d="M87.8047 54.4718V41.6079H93.4281C97.5996 41.6079 100.448 44.1807 100.448 48.0399C100.448 51.899 97.5996 54.4718 93.4281 54.4718H87.8047ZM90.1937 52.4504H93.3178C96.1846 52.4504 98.0407 50.7045 98.0407 48.0399C98.0407 45.3752 96.1846 43.6294 93.3178 43.6294H90.1937V52.4504Z" fill="white"/>
<path d="M81.6481 54.4718L80.3617 51.4947H73.9298L72.6617 54.4718H70.1992L75.988 41.6079H78.3402L84.1474 54.4718H81.6481ZM74.7383 49.6203H79.5715L77.1457 43.9969L74.7383 49.6203Z" fill="white"/>
<path d="M67.5441 54.4718H64.9714L62.3434 50.7045C62.1781 50.7229 62.0127 50.7229 61.8473 50.7229H58.9437V54.4718H56.5547V41.6079H61.8473C65.2286 41.6079 67.3236 43.3354 67.3236 46.1838C67.3236 48.1318 66.3313 49.5652 64.5854 50.2451L67.5441 54.4718ZM64.9162 46.1838C64.9162 44.5666 63.832 43.6294 61.737 43.6294H58.9437V48.7566H61.737C63.832 48.7566 64.9162 47.801 64.9162 46.1838Z" fill="white"/>
</svg>
